<?xml version="1.0" encoding="utf-8"?>
<!-- Generator: Adobe Illustrator 25.2.0, SVG Export Plug-In . SVG Version: 6.00 Build 0)  -->
<svg version="1.1" id="图层_1" xmlns="http://www.w3.org/2000/svg" xmlns:xlink="http://www.w3.org/1999/xlink" x="0px" y="0px"
	 viewBox="0 0 128 128" style="enable-background:new 0 0 128 128;" xml:space="preserve">
<style type="text/css">
	.st0{fill:none;}
	.st1{fill:#4F4F4F;}
	.st2{font-family:'GillSans-SemiBold';}
	.st3{font-size:60px;}
	.st4{fill:#F37726;}
	.st5{font-family:'Futura-Medium';}
	.st6{font-size:48px;}
</style>
<text transform="matrix(1 0 0 1 960 540)" style="font-family:'AdobeSongStd-Light-GBpc-EUC-H'; font-size:12px;">logo-square</text>
<path class="st0" d="M22.9,0h98c8.3,0,15,6.7,15,15v98c0,8.3-6.7,15-15,15h-98c-8.3,0-15-6.7-15-15V15C7.9,6.7,14.6,0,22.9,0z"/>
<text transform="matrix(1 0 0 1 7.9229 50.4635)" class="st1 st2 st3">AI</text>
<path class="st4" d="M7.6,81.8l6.6-2.2c1.3,4,3.7,6.9,7.1,8.7c3.3,1.8,7.5,2.6,12.4,2.6h11.5c4,0,7.5,0.8,10.5,2.5
	c3,1.7,5.3,4.3,6.9,7.8c1.5-3.5,3.8-6.1,6.8-7.8c3-1.7,6.5-2.5,10.6-2.5h11.6c4.9,0,9.1-0.9,12.5-2.6c3.4-1.8,5.8-4.7,7.1-8.7
	l6.6,2.2c-2.1,7.3-5.3,12.4-9.8,15.5c-4.5,3.1-9.9,4.7-16.3,4.7H80c-4.2,0-7.5,1-9.8,2.9c-2.3,1.9-3.4,4.9-3.4,8.9h-8.3
	c0-4-1.2-7-3.5-8.9c-2.3-1.9-5.6-2.9-9.8-2.9H33.7c-6.4,0-11.8-1.6-16.3-4.7C12.9,94.2,9.6,89,7.6,81.8z"/>
<text transform="matrix(1 0 0 1 36.5312 78.6328)" class="st1 st5 st6">SYS</text>
</svg>
